<mxfile host="app.diagrams.net" modified="2021-03-15T14:19:09.094Z" agent="5.0 (Windows NT 10.0; Win64; x64) AppleWebKit/537.36 (KHTML, like Gecko) Chrome/88.0.4324.182 Safari/537.36 OPR/74.0.3911.203" etag="6ylTD71iVGBvmD58c1fe" version="14.4.8" type="github">
  <diagram name="Page-1" id="edf60f1a-56cd-e834-aa8a-f176f3a09ee4">
    <mxGraphModel dx="2480" dy="1672" grid="1" gridSize="10" guides="1" tooltips="1" connect="1" arrows="1" fold="1" page="1" pageScale="1" pageWidth="1100" pageHeight="850" background="#ffffff" math="0" shadow="0">
      <root>
        <mxCell id="0" />
        <mxCell id="1" parent="0" />
        <mxCell id="D5FVr0X5BtPUz_qfZQi5-5" style="edgeStyle=orthogonalEdgeStyle;rounded=0;orthogonalLoop=1;jettySize=auto;html=1;" parent="1" source="D5FVr0X5BtPUz_qfZQi5-3" edge="1">
          <mxGeometry relative="1" as="geometry">
            <mxPoint x="-150.00000000000023" y="-450" as="targetPoint" />
          </mxGeometry>
        </mxCell>
        <mxCell id="D5FVr0X5BtPUz_qfZQi5-35" style="edgeStyle=orthogonalEdgeStyle;rounded=0;orthogonalLoop=1;jettySize=auto;html=1;entryX=0.5;entryY=0;entryDx=0;entryDy=0;" parent="1" source="D5FVr0X5BtPUz_qfZQi5-46" target="D5FVr0X5BtPUz_qfZQi5-34" edge="1">
          <mxGeometry relative="1" as="geometry" />
        </mxCell>
        <mxCell id="D5FVr0X5BtPUz_qfZQi5-44" style="edgeStyle=orthogonalEdgeStyle;rounded=0;orthogonalLoop=1;jettySize=auto;html=1;" parent="1" source="D5FVr0X5BtPUz_qfZQi5-3" edge="1">
          <mxGeometry relative="1" as="geometry">
            <mxPoint x="370" y="-440" as="targetPoint" />
            <Array as="points">
              <mxPoint x="-150" y="-630" />
            </Array>
          </mxGeometry>
        </mxCell>
        <mxCell id="D5FVr0X5BtPUz_qfZQi5-48" style="edgeStyle=orthogonalEdgeStyle;rounded=0;orthogonalLoop=1;jettySize=auto;html=1;entryX=0;entryY=0.5;entryDx=0;entryDy=0;" parent="1" source="D5FVr0X5BtPUz_qfZQi5-3" target="D5FVr0X5BtPUz_qfZQi5-46" edge="1">
          <mxGeometry relative="1" as="geometry">
            <mxPoint x="-20" y="-545" as="targetPoint" />
          </mxGeometry>
        </mxCell>
        <mxCell id="D5FVr0X5BtPUz_qfZQi5-3" value="Start" style="ellipse;whiteSpace=wrap;html=1;" parent="1" vertex="1">
          <mxGeometry x="-210" y="-570" width="120" height="50" as="geometry" />
        </mxCell>
        <mxCell id="D5FVr0X5BtPUz_qfZQi5-10" style="edgeStyle=orthogonalEdgeStyle;rounded=0;orthogonalLoop=1;jettySize=auto;html=1;entryX=0.5;entryY=0;entryDx=0;entryDy=0;" parent="1" source="D5FVr0X5BtPUz_qfZQi5-6" edge="1">
          <mxGeometry relative="1" as="geometry">
            <mxPoint x="-150.00000000000023" y="-220" as="targetPoint" />
          </mxGeometry>
        </mxCell>
        <mxCell id="D5FVr0X5BtPUz_qfZQi5-16" style="edgeStyle=orthogonalEdgeStyle;rounded=0;orthogonalLoop=1;jettySize=auto;html=1;" parent="1" source="D5FVr0X5BtPUz_qfZQi5-6" edge="1">
          <mxGeometry relative="1" as="geometry">
            <mxPoint x="-340" y="-370" as="targetPoint" />
          </mxGeometry>
        </mxCell>
        <mxCell id="D5FVr0X5BtPUz_qfZQi5-6" value="(initializing)&lt;br&gt;canbus_open_lock_msg&lt;br&gt;canbus_object_msg&lt;br&gt;&lt;br&gt;solenoid_state = 1 // kilitli&lt;br&gt;lock_current_analog_value&lt;br&gt;lock_current_error&lt;br&gt;&lt;br&gt;sw_open_door_state&lt;br&gt;sw_close_door_state&lt;br&gt;lights_flag&lt;br&gt;rgb_led_state&lt;br&gt;sensor1_stae&lt;br&gt;sensor2_state&lt;br&gt;sensor3_state" style="shape=parallelogram;perimeter=parallelogramPerimeter;whiteSpace=wrap;html=1;fixedSize=1;" parent="1" vertex="1">
          <mxGeometry x="-287.5" y="-475" width="275" height="210" as="geometry" />
        </mxCell>
        <mxCell id="D5FVr0X5BtPUz_qfZQi5-15" style="edgeStyle=orthogonalEdgeStyle;rounded=0;orthogonalLoop=1;jettySize=auto;html=1;entryX=0.5;entryY=0;entryDx=0;entryDy=0;" parent="1" source="D5FVr0X5BtPUz_qfZQi5-11" target="D5FVr0X5BtPUz_qfZQi5-24" edge="1">
          <mxGeometry relative="1" as="geometry">
            <mxPoint x="-150" y="170" as="targetPoint" />
            <Array as="points" />
          </mxGeometry>
        </mxCell>
        <mxCell id="D5FVr0X5BtPUz_qfZQi5-21" value="YES" style="edgeLabel;html=1;align=center;verticalAlign=middle;resizable=0;points=[];" parent="D5FVr0X5BtPUz_qfZQi5-15" vertex="1" connectable="0">
          <mxGeometry x="-0.6909" y="-1" relative="1" as="geometry">
            <mxPoint x="0.9" y="81.1" as="offset" />
          </mxGeometry>
        </mxCell>
        <mxCell id="D5FVr0X5BtPUz_qfZQi5-18" style="edgeStyle=orthogonalEdgeStyle;rounded=0;orthogonalLoop=1;jettySize=auto;html=1;entryX=0.5;entryY=1;entryDx=0;entryDy=0;" parent="1" source="D5FVr0X5BtPUz_qfZQi5-11" target="D5FVr0X5BtPUz_qfZQi5-17" edge="1">
          <mxGeometry relative="1" as="geometry" />
        </mxCell>
        <mxCell id="D5FVr0X5BtPUz_qfZQi5-19" value="NO" style="edgeLabel;html=1;align=center;verticalAlign=middle;resizable=0;points=[];" parent="D5FVr0X5BtPUz_qfZQi5-18" vertex="1" connectable="0">
          <mxGeometry x="-0.8309" y="-2" relative="1" as="geometry">
            <mxPoint x="-51.5" y="-18.06" as="offset" />
          </mxGeometry>
        </mxCell>
        <mxCell id="D5FVr0X5BtPUz_qfZQi5-20" value="(CLOSE LOCK MESSAGE)&lt;br&gt;(OR NO MESSAGE)" style="edgeLabel;html=1;align=center;verticalAlign=middle;resizable=0;points=[];" parent="D5FVr0X5BtPUz_qfZQi5-18" vertex="1" connectable="0">
          <mxGeometry x="-0.4389" y="-1" relative="1" as="geometry">
            <mxPoint x="22.5" as="offset" />
          </mxGeometry>
        </mxCell>
        <mxCell id="D5FVr0X5BtPUz_qfZQi5-11" value="Is there open lock message ?&lt;br&gt;canbus_open_lock_msg" style="rhombus;whiteSpace=wrap;html=1;" parent="1" vertex="1">
          <mxGeometry x="-238.75" y="-220" width="177.5" height="150" as="geometry" />
        </mxCell>
        <mxCell id="D5FVr0X5BtPUz_qfZQi5-33" style="edgeStyle=orthogonalEdgeStyle;rounded=0;orthogonalLoop=1;jettySize=auto;html=1;entryX=1;entryY=0.5;entryDx=0;entryDy=0;" parent="1" source="D5FVr0X5BtPUz_qfZQi5-17" target="D5FVr0X5BtPUz_qfZQi5-32" edge="1">
          <mxGeometry relative="1" as="geometry" />
        </mxCell>
        <mxCell id="D5FVr0X5BtPUz_qfZQi5-17" value="rgb_led_state=green // empty&lt;br&gt;lights_flag=0" style="rounded=0;whiteSpace=wrap;html=1;" parent="1" vertex="1">
          <mxGeometry x="-510" y="-405" width="170" height="70" as="geometry" />
        </mxCell>
        <mxCell id="D5FVr0X5BtPUz_qfZQi5-26" value="YES" style="edgeStyle=orthogonalEdgeStyle;rounded=0;orthogonalLoop=1;jettySize=auto;html=1;entryX=0.5;entryY=0;entryDx=0;entryDy=0;" parent="1" source="D5FVr0X5BtPUz_qfZQi5-24" edge="1">
          <mxGeometry relative="1" as="geometry">
            <mxPoint x="-150" y="410" as="targetPoint" />
            <Array as="points" />
          </mxGeometry>
        </mxCell>
        <mxCell id="D5FVr0X5BtPUz_qfZQi5-78" style="edgeStyle=orthogonalEdgeStyle;rounded=0;orthogonalLoop=1;jettySize=auto;html=1;entryX=0.5;entryY=0;entryDx=0;entryDy=0;" parent="1" source="D5FVr0X5BtPUz_qfZQi5-24" target="D5FVr0X5BtPUz_qfZQi5-171" edge="1">
          <mxGeometry relative="1" as="geometry">
            <mxPoint x="60" y="480" as="targetPoint" />
            <Array as="points">
              <mxPoint x="60" y="265" />
            </Array>
          </mxGeometry>
        </mxCell>
        <mxCell id="D5FVr0X5BtPUz_qfZQi5-79" value="YES" style="edgeLabel;html=1;align=center;verticalAlign=middle;resizable=0;points=[];" parent="D5FVr0X5BtPUz_qfZQi5-78" vertex="1" connectable="0">
          <mxGeometry x="-0.0689" y="-2" relative="1" as="geometry">
            <mxPoint as="offset" />
          </mxGeometry>
        </mxCell>
        <mxCell id="MWrZeghzE-EOdqpb_YKr-6" value="" style="edgeStyle=orthogonalEdgeStyle;rounded=0;orthogonalLoop=1;jettySize=auto;html=1;" edge="1" parent="1" source="D5FVr0X5BtPUz_qfZQi5-24" target="MWrZeghzE-EOdqpb_YKr-3">
          <mxGeometry relative="1" as="geometry" />
        </mxCell>
        <mxCell id="MWrZeghzE-EOdqpb_YKr-7" value="NO" style="edgeLabel;html=1;align=center;verticalAlign=middle;resizable=0;points=[];" vertex="1" connectable="0" parent="MWrZeghzE-EOdqpb_YKr-6">
          <mxGeometry x="-0.2491" y="2" relative="1" as="geometry">
            <mxPoint as="offset" />
          </mxGeometry>
        </mxCell>
        <mxCell id="D5FVr0X5BtPUz_qfZQi5-24" value="sw_open_door_state == 0&lt;span&gt;&lt;br&gt;sw_close_door_state == 1&lt;br&gt;(&amp;amp;&amp;amp;&amp;nbsp;&lt;/span&gt;canbus_open_lock_flag=1&lt;span&gt;)&lt;br&gt;&lt;/span&gt;" style="rhombus;whiteSpace=wrap;html=1;" parent="1" vertex="1">
          <mxGeometry x="-257.5" y="180" width="215" height="170" as="geometry" />
        </mxCell>
        <mxCell id="D5FVr0X5BtPUz_qfZQi5-63" style="edgeStyle=orthogonalEdgeStyle;rounded=0;orthogonalLoop=1;jettySize=auto;html=1;entryX=1;entryY=0.5;entryDx=0;entryDy=0;" parent="1" source="D5FVr0X5BtPUz_qfZQi5-31" target="D5FVr0X5BtPUz_qfZQi5-61" edge="1">
          <mxGeometry relative="1" as="geometry" />
        </mxCell>
        <mxCell id="D5FVr0X5BtPUz_qfZQi5-31" value="Open the lock" style="shape=document;whiteSpace=wrap;html=1;boundedLbl=1;" parent="1" vertex="1">
          <mxGeometry x="-210" y="410" width="120" height="80" as="geometry" />
        </mxCell>
        <mxCell id="D5FVr0X5BtPUz_qfZQi5-32" value="light the led as green" style="shape=document;whiteSpace=wrap;html=1;boundedLbl=1;fillColor=#008a00;strokeColor=#005700;fontColor=#ffffff;" parent="1" vertex="1">
          <mxGeometry x="-680" y="-410" width="120" height="80" as="geometry" />
        </mxCell>
        <mxCell id="D5FVr0X5BtPUz_qfZQi5-36" style="edgeStyle=orthogonalEdgeStyle;rounded=0;orthogonalLoop=1;jettySize=auto;html=1;entryX=1;entryY=0.5;entryDx=0;entryDy=0;" parent="1" source="D5FVr0X5BtPUz_qfZQi5-34" target="D5FVr0X5BtPUz_qfZQi5-11" edge="1">
          <mxGeometry relative="1" as="geometry">
            <Array as="points">
              <mxPoint x="150" y="-145" />
            </Array>
          </mxGeometry>
        </mxCell>
        <mxCell id="D5FVr0X5BtPUz_qfZQi5-34" value="Read The Bus" style="shape=trapezoid;perimeter=trapezoidPerimeter;whiteSpace=wrap;html=1;fixedSize=1;fillColor=#647687;strokeColor=#314354;fontColor=#ffffff;" parent="1" vertex="1">
          <mxGeometry x="70" y="-435" width="160" height="100" as="geometry" />
        </mxCell>
        <mxCell id="D5FVr0X5BtPUz_qfZQi5-37" value="interrupt" style="triangle;whiteSpace=wrap;html=1;" parent="1" vertex="1">
          <mxGeometry x="182.5" y="750" width="91.25" height="90" as="geometry" />
        </mxCell>
        <mxCell id="MWrZeghzE-EOdqpb_YKr-21" style="edgeStyle=orthogonalEdgeStyle;rounded=0;orthogonalLoop=1;jettySize=auto;html=1;entryX=1;entryY=0.5;entryDx=0;entryDy=0;" edge="1" parent="1" source="D5FVr0X5BtPUz_qfZQi5-40" target="MWrZeghzE-EOdqpb_YKr-20">
          <mxGeometry relative="1" as="geometry" />
        </mxCell>
        <mxCell id="D5FVr0X5BtPUz_qfZQi5-40" value="Send message &lt;br&gt;on bus&lt;br&gt;&amp;nbsp;( &quot;There is an problem about switch and door is open according to the switch .&quot; )" style="shape=step;perimeter=stepPerimeter;whiteSpace=wrap;html=1;fixedSize=1;rotation=0;" parent="1" vertex="1">
          <mxGeometry x="-517.5" width="185" height="80" as="geometry" />
        </mxCell>
        <mxCell id="D5FVr0X5BtPUz_qfZQi5-58" style="edgeStyle=orthogonalEdgeStyle;rounded=0;orthogonalLoop=1;jettySize=auto;html=1;" parent="1" source="D5FVr0X5BtPUz_qfZQi5-45" target="D5FVr0X5BtPUz_qfZQi5-57" edge="1">
          <mxGeometry relative="1" as="geometry" />
        </mxCell>
        <mxCell id="D5FVr0X5BtPUz_qfZQi5-45" value="Control The &lt;br&gt;Current Of Solenoid&lt;br&gt;Lock" style="shape=trapezoid;perimeter=trapezoidPerimeter;whiteSpace=wrap;html=1;fixedSize=1;fillColor=#76608a;strokeColor=#432D57;fontColor=#ffffff;" parent="1" vertex="1">
          <mxGeometry x="290" y="-435" width="160" height="100" as="geometry" />
        </mxCell>
        <mxCell id="D5FVr0X5BtPUz_qfZQi5-46" value="Interrupt" style="triangle;whiteSpace=wrap;html=1;" parent="1" vertex="1">
          <mxGeometry y="-585" width="60" height="80" as="geometry" />
        </mxCell>
        <mxCell id="D5FVr0X5BtPUz_qfZQi5-49" value="Byte Geldiginde&lt;br&gt;" style="text;html=1;strokeColor=none;fillColor=none;align=center;verticalAlign=middle;whiteSpace=wrap;rounded=0;" parent="1" vertex="1">
          <mxGeometry x="-70" y="-570" width="40" height="20" as="geometry" />
        </mxCell>
        <mxCell id="D5FVr0X5BtPUz_qfZQi5-52" value="YES" style="edgeStyle=orthogonalEdgeStyle;rounded=0;orthogonalLoop=1;jettySize=auto;html=1;exitX=0.5;exitY=1;exitDx=0;exitDy=0;" parent="1" source="D5FVr0X5BtPUz_qfZQi5-50" edge="1">
          <mxGeometry relative="1" as="geometry">
            <mxPoint x="302.5" y="840" as="targetPoint" />
            <mxPoint x="302.5" y="769.9964331210194" as="sourcePoint" />
            <Array as="points">
              <mxPoint x="303" y="810" />
              <mxPoint x="303" y="810" />
            </Array>
          </mxGeometry>
        </mxCell>
        <mxCell id="MWrZeghzE-EOdqpb_YKr-35" style="edgeStyle=orthogonalEdgeStyle;rounded=0;orthogonalLoop=1;jettySize=auto;html=1;entryX=0;entryY=0.5;entryDx=0;entryDy=0;" edge="1" parent="1" source="D5FVr0X5BtPUz_qfZQi5-50" target="D5FVr0X5BtPUz_qfZQi5-103">
          <mxGeometry relative="1" as="geometry">
            <Array as="points">
              <mxPoint x="303" y="825" />
            </Array>
          </mxGeometry>
        </mxCell>
        <mxCell id="D5FVr0X5BtPUz_qfZQi5-50" value="lights_flag==1 &amp;amp;&amp;amp;&lt;br&gt;(Control The Switch)&lt;br&gt;sw_open_door_state == 0&lt;br&gt;sw_close_door_state==1" style="rhombus;whiteSpace=wrap;html=1;" parent="1" vertex="1">
          <mxGeometry x="204.37" y="640" width="196.25" height="140" as="geometry" />
        </mxCell>
        <mxCell id="D5FVr0X5BtPUz_qfZQi5-56" value="Close the lock" style="shape=document;whiteSpace=wrap;html=1;boundedLbl=1;" parent="1" vertex="1">
          <mxGeometry x="242.5" y="840" width="120" height="80" as="geometry" />
        </mxCell>
        <mxCell id="D5FVr0X5BtPUz_qfZQi5-137" style="edgeStyle=orthogonalEdgeStyle;rounded=0;orthogonalLoop=1;jettySize=auto;html=1;" parent="1" source="D5FVr0X5BtPUz_qfZQi5-57" target="D5FVr0X5BtPUz_qfZQi5-136" edge="1">
          <mxGeometry relative="1" as="geometry" />
        </mxCell>
        <mxCell id="D5FVr0X5BtPUz_qfZQi5-57" value="lock_current_analog_value &amp;gt; 200 ma&lt;br&gt;and&lt;br&gt;lock_current_error==0" style="rhombus;whiteSpace=wrap;html=1;" parent="1" vertex="1">
          <mxGeometry x="250" y="-270" width="240" height="160" as="geometry" />
        </mxCell>
        <mxCell id="D5FVr0X5BtPUz_qfZQi5-163" style="edgeStyle=orthogonalEdgeStyle;rounded=0;orthogonalLoop=1;jettySize=auto;html=1;entryX=1;entryY=0.5;entryDx=0;entryDy=0;" parent="1" source="D5FVr0X5BtPUz_qfZQi5-59" target="D5FVr0X5BtPUz_qfZQi5-161" edge="1">
          <mxGeometry relative="1" as="geometry" />
        </mxCell>
        <mxCell id="D5FVr0X5BtPUz_qfZQi5-59" value="Send message &lt;br&gt;on bus&lt;br&gt;&amp;nbsp;( &quot;There is an error about solenoid lock . Check solenoid lock .&quot; )" style="shape=step;perimeter=stepPerimeter;whiteSpace=wrap;html=1;fixedSize=1;rotation=0;" parent="1" vertex="1">
          <mxGeometry x="510" y="190" width="220" height="80" as="geometry" />
        </mxCell>
        <mxCell id="D5FVr0X5BtPUz_qfZQi5-65" style="edgeStyle=orthogonalEdgeStyle;rounded=0;orthogonalLoop=1;jettySize=auto;html=1;entryX=1;entryY=0.5;entryDx=0;entryDy=0;" parent="1" source="D5FVr0X5BtPUz_qfZQi5-61" target="D5FVr0X5BtPUz_qfZQi5-64" edge="1">
          <mxGeometry relative="1" as="geometry">
            <Array as="points">
              <mxPoint x="-570" y="450" />
              <mxPoint x="-570" y="400" />
            </Array>
          </mxGeometry>
        </mxCell>
        <mxCell id="D5FVr0X5BtPUz_qfZQi5-67" style="edgeStyle=orthogonalEdgeStyle;rounded=0;orthogonalLoop=1;jettySize=auto;html=1;entryX=1;entryY=0.5;entryDx=0;entryDy=0;" parent="1" source="D5FVr0X5BtPUz_qfZQi5-61" target="D5FVr0X5BtPUz_qfZQi5-66" edge="1">
          <mxGeometry relative="1" as="geometry">
            <Array as="points">
              <mxPoint x="-570" y="470" />
              <mxPoint x="-570" y="520" />
            </Array>
          </mxGeometry>
        </mxCell>
        <mxCell id="D5FVr0X5BtPUz_qfZQi5-61" value="&lt;span&gt;rgb_led_state=green_blink // open&lt;/span&gt;&lt;br&gt;&lt;span&gt;lights_flag=1&lt;/span&gt;" style="rounded=0;whiteSpace=wrap;html=1;" parent="1" vertex="1">
          <mxGeometry x="-520" y="420" width="190" height="60" as="geometry" />
        </mxCell>
        <mxCell id="D5FVr0X5BtPUz_qfZQi5-64" value="Light the led as blinking green" style="shape=document;whiteSpace=wrap;html=1;boundedLbl=1;fillColor=#60a917;strokeColor=#2D7600;fontColor=#ffffff;" parent="1" vertex="1">
          <mxGeometry x="-710" y="360" width="120" height="80" as="geometry" />
        </mxCell>
        <mxCell id="D5FVr0X5BtPUz_qfZQi5-66" value="Light white leds" style="shape=document;whiteSpace=wrap;html=1;boundedLbl=1;" parent="1" vertex="1">
          <mxGeometry x="-710" y="480" width="120" height="80" as="geometry" />
        </mxCell>
        <mxCell id="D5FVr0X5BtPUz_qfZQi5-68" style="edgeStyle=orthogonalEdgeStyle;rounded=0;orthogonalLoop=1;jettySize=auto;html=1;entryX=1;entryY=0.5;entryDx=0;entryDy=0;" parent="1" target="D5FVr0X5BtPUz_qfZQi5-71" edge="1">
          <mxGeometry relative="1" as="geometry">
            <mxPoint x="242.5" y="880" as="sourcePoint" />
          </mxGeometry>
        </mxCell>
        <mxCell id="D5FVr0X5BtPUz_qfZQi5-69" style="edgeStyle=orthogonalEdgeStyle;rounded=0;orthogonalLoop=1;jettySize=auto;html=1;entryX=1;entryY=0.5;entryDx=0;entryDy=0;" parent="1" source="D5FVr0X5BtPUz_qfZQi5-71" target="D5FVr0X5BtPUz_qfZQi5-72" edge="1">
          <mxGeometry relative="1" as="geometry">
            <Array as="points">
              <mxPoint x="-117" y="870" />
              <mxPoint x="-117" y="830" />
            </Array>
          </mxGeometry>
        </mxCell>
        <mxCell id="D5FVr0X5BtPUz_qfZQi5-70" style="edgeStyle=orthogonalEdgeStyle;rounded=0;orthogonalLoop=1;jettySize=auto;html=1;entryX=1;entryY=0.5;entryDx=0;entryDy=0;" parent="1" source="D5FVr0X5BtPUz_qfZQi5-71" target="D5FVr0X5BtPUz_qfZQi5-73" edge="1">
          <mxGeometry relative="1" as="geometry">
            <Array as="points">
              <mxPoint x="-117" y="890" />
              <mxPoint x="-117" y="950" />
            </Array>
          </mxGeometry>
        </mxCell>
        <mxCell id="D5FVr0X5BtPUz_qfZQi5-192" style="edgeStyle=orthogonalEdgeStyle;rounded=0;orthogonalLoop=1;jettySize=auto;html=1;entryX=0.5;entryY=0;entryDx=0;entryDy=0;" parent="1" source="D5FVr0X5BtPUz_qfZQi5-71" target="D5FVr0X5BtPUz_qfZQi5-106" edge="1">
          <mxGeometry relative="1" as="geometry" />
        </mxCell>
        <mxCell id="D5FVr0X5BtPUz_qfZQi5-71" value="&lt;span&gt;rgb_led_state=green_blink&amp;nbsp;&lt;/span&gt;&lt;br&gt;&lt;span&gt;lights_flag=0&lt;/span&gt;" style="rounded=0;whiteSpace=wrap;html=1;" parent="1" vertex="1">
          <mxGeometry x="-67.5" y="850" width="190" height="60" as="geometry" />
        </mxCell>
        <mxCell id="D5FVr0X5BtPUz_qfZQi5-72" value="Light the led as blinking blue" style="shape=document;whiteSpace=wrap;html=1;boundedLbl=1;fillColor=#0050ef;strokeColor=#001DBC;fontColor=#ffffff;" parent="1" vertex="1">
          <mxGeometry x="-257.5" y="790" width="120" height="80" as="geometry" />
        </mxCell>
        <mxCell id="D5FVr0X5BtPUz_qfZQi5-73" value="Turn off white leds" style="shape=document;whiteSpace=wrap;html=1;boundedLbl=1;" parent="1" vertex="1">
          <mxGeometry x="-257.5" y="910" width="120" height="80" as="geometry" />
        </mxCell>
        <mxCell id="D5FVr0X5BtPUz_qfZQi5-74" value="&lt;h1&gt;RGB LED STATES&lt;/h1&gt;&lt;p&gt;Green =&amp;gt; empty&lt;/p&gt;&lt;p&gt;Blink Green =&amp;gt; Open Door&lt;/p&gt;&lt;p&gt;Blink Blue =&amp;gt; uncontrolled object&lt;/p&gt;&lt;p&gt;Blue =&amp;gt; Full&lt;/p&gt;&lt;p&gt;Red =&amp;gt; Error&lt;/p&gt;&lt;p&gt;Blink Red =&amp;gt; Timeout for open door&lt;/p&gt;&lt;p&gt;&lt;br&gt;&lt;/p&gt;&lt;p&gt;&lt;br&gt;&lt;/p&gt;" style="text;html=1;strokeColor=none;fillColor=none;spacing=5;spacingTop=-20;whiteSpace=wrap;overflow=hidden;rounded=0;" parent="1" vertex="1">
          <mxGeometry x="-610" y="-640" width="230" height="200" as="geometry" />
        </mxCell>
        <mxCell id="D5FVr0X5BtPUz_qfZQi5-75" value="interrupt" style="triangle;whiteSpace=wrap;html=1;" parent="1" vertex="1">
          <mxGeometry x="-270" y="330" width="91.25" height="90" as="geometry" />
        </mxCell>
        <mxCell id="D5FVr0X5BtPUz_qfZQi5-91" value="The door is closed by user ." style="text;html=1;strokeColor=none;fillColor=none;align=center;verticalAlign=middle;whiteSpace=wrap;rounded=0;" parent="1" vertex="1">
          <mxGeometry x="420" y="650" width="40" height="20" as="geometry" />
        </mxCell>
        <mxCell id="D5FVr0X5BtPUz_qfZQi5-181" style="edgeStyle=orthogonalEdgeStyle;rounded=0;orthogonalLoop=1;jettySize=auto;html=1;entryX=0.5;entryY=0;entryDx=0;entryDy=0;" parent="1" source="D5FVr0X5BtPUz_qfZQi5-96" target="D5FVr0X5BtPUz_qfZQi5-180" edge="1">
          <mxGeometry relative="1" as="geometry" />
        </mxCell>
        <mxCell id="D5FVr0X5BtPUz_qfZQi5-96" value="Start the Timer1" style="rounded=0;whiteSpace=wrap;html=1;fillColor=#fad7ac;strokeColor=#b46504;" parent="1" vertex="1">
          <mxGeometry x="-300" y="590" width="120" height="30" as="geometry" />
        </mxCell>
        <mxCell id="D5FVr0X5BtPUz_qfZQi5-190" style="edgeStyle=orthogonalEdgeStyle;rounded=0;orthogonalLoop=1;jettySize=auto;html=1;entryX=0.5;entryY=0;entryDx=0;entryDy=0;" parent="1" source="D5FVr0X5BtPUz_qfZQi5-100" target="D5FVr0X5BtPUz_qfZQi5-50" edge="1">
          <mxGeometry relative="1" as="geometry" />
        </mxCell>
        <mxCell id="D5FVr0X5BtPUz_qfZQi5-100" value="&lt;span style=&quot;background-color: rgb(255 , 255 , 255)&quot;&gt;Send message&amp;nbsp;&lt;/span&gt;&lt;br&gt;&lt;span style=&quot;background-color: rgb(255 , 255 , 255)&quot;&gt;on bus (for user)&lt;/span&gt;&lt;br&gt;&lt;span style=&quot;background-color: rgb(255 , 255 , 255)&quot;&gt;&amp;nbsp;( &quot;Put the object and close the door .&quot; )&lt;/span&gt;" style="shape=step;perimeter=stepPerimeter;whiteSpace=wrap;html=1;fixedSize=1;" parent="1" vertex="1">
          <mxGeometry x="172.5" y="520" width="260" height="80" as="geometry" />
        </mxCell>
        <mxCell id="D5FVr0X5BtPUz_qfZQi5-103" value="Stop the Timer1" style="rounded=0;whiteSpace=wrap;html=1;fillColor=#fad7ac;strokeColor=#b46504;" parent="1" vertex="1">
          <mxGeometry x="394.75" y="810" width="120" height="30" as="geometry" />
        </mxCell>
        <mxCell id="D5FVr0X5BtPUz_qfZQi5-118" value="YES" style="edgeStyle=orthogonalEdgeStyle;rounded=0;orthogonalLoop=1;jettySize=auto;html=1;entryX=0.5;entryY=0;entryDx=0;entryDy=0;" parent="1" source="D5FVr0X5BtPUz_qfZQi5-106" target="D5FVr0X5BtPUz_qfZQi5-117" edge="1">
          <mxGeometry x="-0.2706" relative="1" as="geometry">
            <Array as="points">
              <mxPoint x="493" y="1150" />
            </Array>
            <mxPoint as="offset" />
          </mxGeometry>
        </mxCell>
        <mxCell id="D5FVr0X5BtPUz_qfZQi5-131" style="edgeStyle=orthogonalEdgeStyle;rounded=0;orthogonalLoop=1;jettySize=auto;html=1;entryX=0.5;entryY=0;entryDx=0;entryDy=0;" parent="1" source="D5FVr0X5BtPUz_qfZQi5-106" target="D5FVr0X5BtPUz_qfZQi5-130" edge="1">
          <mxGeometry relative="1" as="geometry" />
        </mxCell>
        <mxCell id="D5FVr0X5BtPUz_qfZQi5-132" value="NO&lt;br&gt;" style="edgeLabel;html=1;align=center;verticalAlign=middle;resizable=0;points=[];" parent="D5FVr0X5BtPUz_qfZQi5-131" vertex="1" connectable="0">
          <mxGeometry x="-0.2348" y="-4" relative="1" as="geometry">
            <mxPoint x="1" as="offset" />
          </mxGeometry>
        </mxCell>
        <mxCell id="D5FVr0X5BtPUz_qfZQi5-106" value="(Control The Sensors)&lt;br&gt;sensor1_stae or&lt;br&gt;sensor2_state or&lt;br&gt;sensor3_state == 1" style="rhombus;whiteSpace=wrap;html=1;" parent="1" vertex="1">
          <mxGeometry x="-71.5" y="1070" width="196.25" height="160" as="geometry" />
        </mxCell>
        <mxCell id="D5FVr0X5BtPUz_qfZQi5-135" style="edgeStyle=orthogonalEdgeStyle;rounded=0;orthogonalLoop=1;jettySize=auto;html=1;" parent="1" source="D5FVr0X5BtPUz_qfZQi5-107" target="D5FVr0X5BtPUz_qfZQi5-134" edge="1">
          <mxGeometry relative="1" as="geometry" />
        </mxCell>
        <mxCell id="D5FVr0X5BtPUz_qfZQi5-107" value="&lt;span style=&quot;background-color: rgb(255 , 255 , 255)&quot;&gt;Send message&amp;nbsp;&lt;/span&gt;&lt;br&gt;&lt;span style=&quot;background-color: rgb(255 , 255 , 255)&quot;&gt;on bus&lt;/span&gt;&lt;br&gt;&lt;span style=&quot;background-color: rgb(255 , 255 , 255)&quot;&gt;&amp;nbsp;( &quot;Ther is an object .&quot; )&lt;/span&gt;" style="shape=step;perimeter=stepPerimeter;whiteSpace=wrap;html=1;fixedSize=1;" parent="1" vertex="1">
          <mxGeometry x="661" y="1420" width="216.25" height="80" as="geometry" />
        </mxCell>
        <mxCell id="D5FVr0X5BtPUz_qfZQi5-167" style="edgeStyle=orthogonalEdgeStyle;rounded=0;orthogonalLoop=1;jettySize=auto;html=1;entryX=1;entryY=0.5;entryDx=0;entryDy=0;" parent="1" source="D5FVr0X5BtPUz_qfZQi5-111" target="D5FVr0X5BtPUz_qfZQi5-166" edge="1">
          <mxGeometry relative="1" as="geometry">
            <Array as="points">
              <mxPoint x="180" y="1600" />
            </Array>
          </mxGeometry>
        </mxCell>
        <mxCell id="D5FVr0X5BtPUz_qfZQi5-111" value="&lt;span&gt;Send message&amp;nbsp;&lt;/span&gt;&lt;br style=&quot;background-color: rgb(248 , 249 , 250)&quot;&gt;&lt;span&gt;on bus&lt;/span&gt;&lt;br style=&quot;background-color: rgb(248 , 249 , 250)&quot;&gt;&lt;span&gt;&amp;nbsp;( &quot;Ther is an error about defined object. Sensors shows that there is an object but there is no any bus message about it .Chech the hopper and check the sensors.If there is no problem with sensors , look after the bus wires and reset .&quot; )&lt;/span&gt;" style="shape=step;perimeter=stepPerimeter;whiteSpace=wrap;html=1;fixedSize=1;rotation=0;" parent="1" vertex="1">
          <mxGeometry x="10" y="1390" width="301" height="110" as="geometry" />
        </mxCell>
        <mxCell id="D5FVr0X5BtPUz_qfZQi5-120" value="YES" style="edgeStyle=orthogonalEdgeStyle;rounded=0;orthogonalLoop=1;jettySize=auto;html=1;entryX=0;entryY=0.5;entryDx=0;entryDy=0;" parent="1" source="D5FVr0X5BtPUz_qfZQi5-117" target="D5FVr0X5BtPUz_qfZQi5-107" edge="1">
          <mxGeometry x="-0.1304" relative="1" as="geometry">
            <Array as="points">
              <mxPoint x="621" y="1320" />
              <mxPoint x="621" y="1460" />
            </Array>
            <mxPoint as="offset" />
          </mxGeometry>
        </mxCell>
        <mxCell id="D5FVr0X5BtPUz_qfZQi5-122" style="edgeStyle=orthogonalEdgeStyle;rounded=0;orthogonalLoop=1;jettySize=auto;html=1;entryX=1;entryY=0.5;entryDx=0;entryDy=0;" parent="1" source="D5FVr0X5BtPUz_qfZQi5-117" target="D5FVr0X5BtPUz_qfZQi5-111" edge="1">
          <mxGeometry relative="1" as="geometry">
            <mxPoint x="321" y="1460" as="targetPoint" />
            <Array as="points">
              <mxPoint x="361" y="1320" />
              <mxPoint x="361" y="1445" />
            </Array>
          </mxGeometry>
        </mxCell>
        <mxCell id="D5FVr0X5BtPUz_qfZQi5-123" value="NO" style="edgeLabel;html=1;align=center;verticalAlign=middle;resizable=0;points=[];" parent="D5FVr0X5BtPUz_qfZQi5-122" vertex="1" connectable="0">
          <mxGeometry x="-0.0091" relative="1" as="geometry">
            <mxPoint y="-12.919999999999998" as="offset" />
          </mxGeometry>
        </mxCell>
        <mxCell id="D5FVr0X5BtPUz_qfZQi5-117" value="canbus_object_msg&lt;br&gt;(from read the bus)" style="rhombus;whiteSpace=wrap;html=1;" parent="1" vertex="1">
          <mxGeometry x="394.75" y="1240" width="196.25" height="160" as="geometry" />
        </mxCell>
        <mxCell id="D5FVr0X5BtPUz_qfZQi5-168" style="edgeStyle=orthogonalEdgeStyle;rounded=0;orthogonalLoop=1;jettySize=auto;html=1;entryX=0;entryY=0.5;entryDx=0;entryDy=0;" parent="1" source="D5FVr0X5BtPUz_qfZQi5-125" target="D5FVr0X5BtPUz_qfZQi5-166" edge="1">
          <mxGeometry relative="1" as="geometry">
            <mxPoint x="-89" y="1700" as="targetPoint" />
            <Array as="points">
              <mxPoint x="-180" y="1530" />
              <mxPoint x="-180" y="1600" />
            </Array>
          </mxGeometry>
        </mxCell>
        <mxCell id="D5FVr0X5BtPUz_qfZQi5-125" value="Send message&amp;nbsp;&lt;br&gt;on bus&lt;br&gt;&amp;nbsp;( &quot;Ther is an error about defined object.There is no object according to sensors but there is an object according to canbus message&quot; )" style="shape=step;perimeter=stepPerimeter;whiteSpace=wrap;html=1;fixedSize=1;" parent="1" vertex="1">
          <mxGeometry x="-286.75" y="1385" width="237.75" height="120" as="geometry" />
        </mxCell>
        <mxCell id="D5FVr0X5BtPUz_qfZQi5-126" value="&lt;span&gt;Send message&amp;nbsp;&lt;/span&gt;&lt;br style=&quot;background-color: rgb(248 , 249 , 250)&quot;&gt;&lt;span&gt;on bus&lt;/span&gt;&lt;br style=&quot;background-color: rgb(248 , 249 , 250)&quot;&gt;&lt;span&gt;&amp;nbsp;( &quot;Ther is no any object.&quot; )&lt;/span&gt;" style="shape=step;perimeter=stepPerimeter;whiteSpace=wrap;html=1;fixedSize=1;rotation=0;" parent="1" vertex="1">
          <mxGeometry x="-857.75" y="1420" width="220" height="80" as="geometry" />
        </mxCell>
        <mxCell id="D5FVr0X5BtPUz_qfZQi5-127" value="YES" style="edgeStyle=orthogonalEdgeStyle;rounded=0;orthogonalLoop=1;jettySize=auto;html=1;entryX=0;entryY=0.5;entryDx=0;entryDy=0;" parent="1" source="D5FVr0X5BtPUz_qfZQi5-130" target="D5FVr0X5BtPUz_qfZQi5-125" edge="1">
          <mxGeometry x="-0.1304" relative="1" as="geometry">
            <Array as="points">
              <mxPoint x="-328" y="1320" />
              <mxPoint x="-328" y="1445" />
            </Array>
            <mxPoint as="offset" />
          </mxGeometry>
        </mxCell>
        <mxCell id="D5FVr0X5BtPUz_qfZQi5-128" style="edgeStyle=orthogonalEdgeStyle;rounded=0;orthogonalLoop=1;jettySize=auto;html=1;entryX=1;entryY=0.5;entryDx=0;entryDy=0;" parent="1" source="D5FVr0X5BtPUz_qfZQi5-130" target="D5FVr0X5BtPUz_qfZQi5-126" edge="1">
          <mxGeometry relative="1" as="geometry">
            <mxPoint x="-627.75" y="1460" as="targetPoint" />
            <Array as="points">
              <mxPoint x="-587.75" y="1320" />
              <mxPoint x="-587.75" y="1460" />
            </Array>
          </mxGeometry>
        </mxCell>
        <mxCell id="D5FVr0X5BtPUz_qfZQi5-129" value="NO" style="edgeLabel;html=1;align=center;verticalAlign=middle;resizable=0;points=[];" parent="D5FVr0X5BtPUz_qfZQi5-128" vertex="1" connectable="0">
          <mxGeometry x="-0.0091" relative="1" as="geometry">
            <mxPoint y="-12.919999999999998" as="offset" />
          </mxGeometry>
        </mxCell>
        <mxCell id="D5FVr0X5BtPUz_qfZQi5-130" value="canbus_object_msg&lt;br&gt;(from read the bus)" style="rhombus;whiteSpace=wrap;html=1;" parent="1" vertex="1">
          <mxGeometry x="-554" y="1240" width="196.25" height="160" as="geometry" />
        </mxCell>
        <mxCell id="D5FVr0X5BtPUz_qfZQi5-134" value="Light the led as blinking blue" style="shape=document;whiteSpace=wrap;html=1;boundedLbl=1;fillColor=#0050ef;strokeColor=#001DBC;fontColor=#ffffff;" parent="1" vertex="1">
          <mxGeometry x="921" y="1420" width="120" height="80" as="geometry" />
        </mxCell>
        <mxCell id="D5FVr0X5BtPUz_qfZQi5-152" style="edgeStyle=orthogonalEdgeStyle;rounded=0;orthogonalLoop=1;jettySize=auto;html=1;" parent="1" source="D5FVr0X5BtPUz_qfZQi5-136" target="D5FVr0X5BtPUz_qfZQi5-139" edge="1">
          <mxGeometry relative="1" as="geometry">
            <Array as="points">
              <mxPoint x="1010" y="-200" />
            </Array>
          </mxGeometry>
        </mxCell>
        <mxCell id="MWrZeghzE-EOdqpb_YKr-19" style="edgeStyle=orthogonalEdgeStyle;rounded=0;orthogonalLoop=1;jettySize=auto;html=1;" edge="1" parent="1" source="D5FVr0X5BtPUz_qfZQi5-136" target="D5FVr0X5BtPUz_qfZQi5-140">
          <mxGeometry relative="1" as="geometry">
            <Array as="points">
              <mxPoint x="830" y="-180" />
            </Array>
          </mxGeometry>
        </mxCell>
        <mxCell id="D5FVr0X5BtPUz_qfZQi5-136" value="Start the Timer0" style="rounded=0;whiteSpace=wrap;html=1;fillColor=#fad7ac;strokeColor=#b46504;" parent="1" vertex="1">
          <mxGeometry x="550" y="-220" width="120" height="60" as="geometry" />
        </mxCell>
        <mxCell id="D5FVr0X5BtPUz_qfZQi5-154" style="edgeStyle=orthogonalEdgeStyle;rounded=0;orthogonalLoop=1;jettySize=auto;html=1;entryX=1;entryY=0.5;entryDx=0;entryDy=0;" parent="1" source="D5FVr0X5BtPUz_qfZQi5-139" target="D5FVr0X5BtPUz_qfZQi5-59" edge="1">
          <mxGeometry relative="1" as="geometry">
            <Array as="points">
              <mxPoint x="1010" y="230" />
            </Array>
          </mxGeometry>
        </mxCell>
        <mxCell id="D5FVr0X5BtPUz_qfZQi5-139" value="Count 10 second on timer0" style="rounded=0;whiteSpace=wrap;html=1;" parent="1" vertex="1">
          <mxGeometry x="950" y="30" width="120" height="50" as="geometry" />
        </mxCell>
        <mxCell id="MWrZeghzE-EOdqpb_YKr-17" value="YES" style="edgeStyle=orthogonalEdgeStyle;rounded=0;orthogonalLoop=1;jettySize=auto;html=1;entryX=1;entryY=0.5;entryDx=0;entryDy=0;" edge="1" parent="1" source="D5FVr0X5BtPUz_qfZQi5-140" target="MWrZeghzE-EOdqpb_YKr-16">
          <mxGeometry relative="1" as="geometry" />
        </mxCell>
        <mxCell id="D5FVr0X5BtPUz_qfZQi5-140" value="lock_current_analog_value &amp;lt;= 200 ma&lt;br&gt;&lt;br&gt;sw_open_door_state == !sw_open_door_state&lt;br&gt;sw_close_door_state == !sw_close_door_state" style="rhombus;whiteSpace=wrap;html=1;" parent="1" vertex="1">
          <mxGeometry x="740" y="-20" width="180" height="150" as="geometry" />
        </mxCell>
        <mxCell id="D5FVr0X5BtPUz_qfZQi5-144" style="edgeStyle=orthogonalEdgeStyle;rounded=0;orthogonalLoop=1;jettySize=auto;html=1;entryX=0.5;entryY=1;entryDx=0;entryDy=0;" parent="1" source="D5FVr0X5BtPUz_qfZQi5-142" target="D5FVr0X5BtPUz_qfZQi5-57" edge="1">
          <mxGeometry relative="1" as="geometry" />
        </mxCell>
        <mxCell id="D5FVr0X5BtPUz_qfZQi5-142" value="Stop the Timer0" style="rounded=0;whiteSpace=wrap;html=1;fillColor=#fad7ac;strokeColor=#b46504;" parent="1" vertex="1">
          <mxGeometry x="310" y="25" width="120" height="60" as="geometry" />
        </mxCell>
        <mxCell id="D5FVr0X5BtPUz_qfZQi5-160" value="After counting ten second&lt;br&gt;" style="text;html=1;strokeColor=none;fillColor=none;align=center;verticalAlign=middle;whiteSpace=wrap;rounded=0;" parent="1" vertex="1">
          <mxGeometry x="740" y="240" width="140" height="20" as="geometry" />
        </mxCell>
        <mxCell id="D5FVr0X5BtPUz_qfZQi5-162" value="" style="edgeStyle=orthogonalEdgeStyle;rounded=0;orthogonalLoop=1;jettySize=auto;html=1;" parent="1" source="D5FVr0X5BtPUz_qfZQi5-161" target="D5FVr0X5BtPUz_qfZQi5-142" edge="1">
          <mxGeometry relative="1" as="geometry" />
        </mxCell>
        <mxCell id="D5FVr0X5BtPUz_qfZQi5-165" value="" style="edgeStyle=orthogonalEdgeStyle;rounded=0;orthogonalLoop=1;jettySize=auto;html=1;" parent="1" source="D5FVr0X5BtPUz_qfZQi5-161" target="D5FVr0X5BtPUz_qfZQi5-164" edge="1">
          <mxGeometry relative="1" as="geometry" />
        </mxCell>
        <mxCell id="D5FVr0X5BtPUz_qfZQi5-161" value="&lt;span&gt;lock_current_error=1&lt;/span&gt;" style="rounded=0;whiteSpace=wrap;html=1;" parent="1" vertex="1">
          <mxGeometry x="310" y="205" width="120" height="50" as="geometry" />
        </mxCell>
        <mxCell id="D5FVr0X5BtPUz_qfZQi5-164" value="Light the led as red" style="shape=document;whiteSpace=wrap;html=1;boundedLbl=1;fillColor=#e51400;strokeColor=#B20000;fontColor=#ffffff;" parent="1" vertex="1">
          <mxGeometry x="140" y="190" width="120" height="80" as="geometry" />
        </mxCell>
        <mxCell id="D5FVr0X5BtPUz_qfZQi5-166" value="Light the led as red" style="shape=document;whiteSpace=wrap;html=1;boundedLbl=1;fillColor=#e51400;strokeColor=#B20000;fontColor=#ffffff;" parent="1" vertex="1">
          <mxGeometry x="-49" y="1560" width="120" height="80" as="geometry" />
        </mxCell>
        <mxCell id="MWrZeghzE-EOdqpb_YKr-2" style="edgeStyle=orthogonalEdgeStyle;rounded=0;orthogonalLoop=1;jettySize=auto;html=1;entryX=0;entryY=0.75;entryDx=0;entryDy=0;exitX=0;exitY=0.5;exitDx=0;exitDy=0;" edge="1" parent="1" source="D5FVr0X5BtPUz_qfZQi5-126" target="D5FVr0X5BtPUz_qfZQi5-6">
          <mxGeometry relative="1" as="geometry">
            <mxPoint x="-1049" y="1460" as="sourcePoint" />
            <Array as="points">
              <mxPoint x="-1070" y="1460" />
              <mxPoint x="-1070" y="-319" />
            </Array>
          </mxGeometry>
        </mxCell>
        <mxCell id="D5FVr0X5BtPUz_qfZQi5-172" style="edgeStyle=orthogonalEdgeStyle;rounded=0;orthogonalLoop=1;jettySize=auto;html=1;exitX=0;exitY=0.5;exitDx=0;exitDy=0;" parent="1" source="D5FVr0X5BtPUz_qfZQi5-171" target="D5FVr0X5BtPUz_qfZQi5-96" edge="1">
          <mxGeometry relative="1" as="geometry">
            <mxPoint x="-50" y="560" as="sourcePoint" />
          </mxGeometry>
        </mxCell>
        <mxCell id="D5FVr0X5BtPUz_qfZQi5-173" style="edgeStyle=orthogonalEdgeStyle;rounded=0;orthogonalLoop=1;jettySize=auto;html=1;entryX=0;entryY=0.5;entryDx=0;entryDy=0;" parent="1" source="D5FVr0X5BtPUz_qfZQi5-171" target="D5FVr0X5BtPUz_qfZQi5-100" edge="1">
          <mxGeometry relative="1" as="geometry">
            <Array as="points">
              <mxPoint x="150" y="560" />
              <mxPoint x="150" y="560" />
            </Array>
          </mxGeometry>
        </mxCell>
        <mxCell id="D5FVr0X5BtPUz_qfZQi5-171" value="" style="ellipse;whiteSpace=wrap;html=1;aspect=fixed;" parent="1" vertex="1">
          <mxGeometry x="40" y="540" width="40" height="40" as="geometry" />
        </mxCell>
        <mxCell id="MWrZeghzE-EOdqpb_YKr-33" value="" style="edgeStyle=orthogonalEdgeStyle;rounded=0;orthogonalLoop=1;jettySize=auto;html=1;" edge="1" parent="1" source="D5FVr0X5BtPUz_qfZQi5-180" target="D5FVr0X5BtPUz_qfZQi5-183">
          <mxGeometry relative="1" as="geometry" />
        </mxCell>
        <mxCell id="D5FVr0X5BtPUz_qfZQi5-180" value="Count 20 second on Timer1" style="rounded=0;whiteSpace=wrap;html=1;" parent="1" vertex="1">
          <mxGeometry x="-300" y="680" width="120" height="40" as="geometry" />
        </mxCell>
        <mxCell id="MWrZeghzE-EOdqpb_YKr-38" style="edgeStyle=orthogonalEdgeStyle;rounded=0;orthogonalLoop=1;jettySize=auto;html=1;entryX=1;entryY=0.5;entryDx=0;entryDy=0;" edge="1" parent="1" source="D5FVr0X5BtPUz_qfZQi5-183" target="MWrZeghzE-EOdqpb_YKr-37">
          <mxGeometry relative="1" as="geometry" />
        </mxCell>
        <mxCell id="D5FVr0X5BtPUz_qfZQi5-183" value="Light the led as blinking red" style="shape=document;whiteSpace=wrap;html=1;boundedLbl=1;fillColor=#a20025;strokeColor=#6F0000;fontColor=#ffffff;" parent="1" vertex="1">
          <mxGeometry x="-465" y="660" width="120" height="80" as="geometry" />
        </mxCell>
        <mxCell id="MWrZeghzE-EOdqpb_YKr-11" value="NO" style="edgeStyle=orthogonalEdgeStyle;rounded=0;orthogonalLoop=1;jettySize=auto;html=1;entryX=0.5;entryY=1;entryDx=0;entryDy=0;" edge="1" parent="1" source="MWrZeghzE-EOdqpb_YKr-3" target="D5FVr0X5BtPUz_qfZQi5-40">
          <mxGeometry x="-0.2" relative="1" as="geometry">
            <mxPoint as="offset" />
          </mxGeometry>
        </mxCell>
        <mxCell id="MWrZeghzE-EOdqpb_YKr-13" value="YES" style="edgeStyle=orthogonalEdgeStyle;rounded=0;orthogonalLoop=1;jettySize=auto;html=1;entryX=1;entryY=0.5;entryDx=0;entryDy=0;" edge="1" parent="1" source="MWrZeghzE-EOdqpb_YKr-3" target="MWrZeghzE-EOdqpb_YKr-12">
          <mxGeometry relative="1" as="geometry" />
        </mxCell>
        <mxCell id="MWrZeghzE-EOdqpb_YKr-3" value="sw_open_door_state ==&amp;nbsp;&lt;span&gt;&lt;br&gt;sw_close_door_state&amp;nbsp;&lt;/span&gt;&lt;span&gt;&lt;br&gt;&lt;/span&gt;" style="rhombus;whiteSpace=wrap;html=1;" vertex="1" parent="1">
          <mxGeometry x="-505" y="200" width="160" height="130" as="geometry" />
        </mxCell>
        <mxCell id="MWrZeghzE-EOdqpb_YKr-9" value="Light the led as red" style="shape=document;whiteSpace=wrap;html=1;boundedLbl=1;fillColor=#e51400;strokeColor=#B20000;fontColor=#ffffff;" vertex="1" parent="1">
          <mxGeometry x="-900" y="225" width="120" height="80" as="geometry" />
        </mxCell>
        <mxCell id="MWrZeghzE-EOdqpb_YKr-14" style="edgeStyle=orthogonalEdgeStyle;rounded=0;orthogonalLoop=1;jettySize=auto;html=1;entryX=1;entryY=0.5;entryDx=0;entryDy=0;" edge="1" parent="1" source="MWrZeghzE-EOdqpb_YKr-12" target="MWrZeghzE-EOdqpb_YKr-9">
          <mxGeometry relative="1" as="geometry" />
        </mxCell>
        <mxCell id="MWrZeghzE-EOdqpb_YKr-12" value="Send message &lt;br&gt;on bus&lt;br&gt;&amp;nbsp;( &quot;There is an problem about switch , change the switch and check to way /wire of the switch .&quot; )" style="shape=step;perimeter=stepPerimeter;whiteSpace=wrap;html=1;fixedSize=1;rotation=0;" vertex="1" parent="1">
          <mxGeometry x="-740" y="215" width="160" height="100" as="geometry" />
        </mxCell>
        <mxCell id="MWrZeghzE-EOdqpb_YKr-18" style="edgeStyle=orthogonalEdgeStyle;rounded=0;orthogonalLoop=1;jettySize=auto;html=1;entryX=1;entryY=0.5;entryDx=0;entryDy=0;" edge="1" parent="1" source="MWrZeghzE-EOdqpb_YKr-16" target="D5FVr0X5BtPUz_qfZQi5-142">
          <mxGeometry relative="1" as="geometry" />
        </mxCell>
        <mxCell id="MWrZeghzE-EOdqpb_YKr-16" value="solenoid_state=&lt;br&gt;!solenoid_state" style="rounded=0;whiteSpace=wrap;html=1;" vertex="1" parent="1">
          <mxGeometry x="520" y="30" width="120" height="50" as="geometry" />
        </mxCell>
        <mxCell id="MWrZeghzE-EOdqpb_YKr-22" style="edgeStyle=orthogonalEdgeStyle;rounded=0;orthogonalLoop=1;jettySize=auto;html=1;entryX=0;entryY=0;entryDx=0;entryDy=0;" edge="1" parent="1" source="MWrZeghzE-EOdqpb_YKr-20" target="D5FVr0X5BtPUz_qfZQi5-171">
          <mxGeometry relative="1" as="geometry">
            <Array as="points">
              <mxPoint x="-668" y="-60" />
              <mxPoint x="20" y="-60" />
              <mxPoint x="20" y="546" />
            </Array>
          </mxGeometry>
        </mxCell>
        <mxCell id="MWrZeghzE-EOdqpb_YKr-23" value="YES" style="edgeLabel;html=1;align=center;verticalAlign=middle;resizable=0;points=[];" vertex="1" connectable="0" parent="MWrZeghzE-EOdqpb_YKr-22">
          <mxGeometry x="-0.4331" y="4" relative="1" as="geometry">
            <mxPoint as="offset" />
          </mxGeometry>
        </mxCell>
        <mxCell id="MWrZeghzE-EOdqpb_YKr-20" value="(Control The Sensors)&lt;br&gt;sensor1_stae or&lt;br&gt;sensor2_state or&lt;br&gt;sensor3_state == 0&lt;br&gt;&amp;amp;&amp;amp;&lt;br&gt;solenoid_state == 0" style="rhombus;whiteSpace=wrap;html=1;" vertex="1" parent="1">
          <mxGeometry x="-766.25" y="-40" width="196.25" height="160" as="geometry" />
        </mxCell>
        <mxCell id="MWrZeghzE-EOdqpb_YKr-26" value="YES" style="edgeStyle=orthogonalEdgeStyle;rounded=0;orthogonalLoop=1;jettySize=auto;html=1;entryX=1;entryY=0.5;entryDx=0;entryDy=0;exitX=0;exitY=0.5;exitDx=0;exitDy=0;" edge="1" parent="1" target="MWrZeghzE-EOdqpb_YKr-29" source="MWrZeghzE-EOdqpb_YKr-20">
          <mxGeometry relative="1" as="geometry">
            <mxPoint x="-766.25" y="40" as="sourcePoint" />
          </mxGeometry>
        </mxCell>
        <mxCell id="MWrZeghzE-EOdqpb_YKr-27" value="Light the led as red" style="shape=document;whiteSpace=wrap;html=1;boundedLbl=1;fillColor=#e51400;strokeColor=#B20000;fontColor=#ffffff;" vertex="1" parent="1">
          <mxGeometry x="-1100" width="120" height="80" as="geometry" />
        </mxCell>
        <mxCell id="MWrZeghzE-EOdqpb_YKr-32" value="" style="edgeStyle=orthogonalEdgeStyle;rounded=0;orthogonalLoop=1;jettySize=auto;html=1;" edge="1" parent="1" source="MWrZeghzE-EOdqpb_YKr-29" target="MWrZeghzE-EOdqpb_YKr-27">
          <mxGeometry relative="1" as="geometry" />
        </mxCell>
        <mxCell id="MWrZeghzE-EOdqpb_YKr-29" value="Send message &lt;br&gt;on bus&lt;br&gt;&amp;nbsp;( &quot;There is an problem about switch , try lock the door and reset.&quot; )" style="shape=step;perimeter=stepPerimeter;whiteSpace=wrap;html=1;fixedSize=1;rotation=0;" vertex="1" parent="1">
          <mxGeometry x="-960" width="160" height="80" as="geometry" />
        </mxCell>
        <mxCell id="MWrZeghzE-EOdqpb_YKr-43" style="edgeStyle=orthogonalEdgeStyle;rounded=0;orthogonalLoop=1;jettySize=auto;html=1;entryX=1;entryY=0.5;entryDx=0;entryDy=0;" edge="1" parent="1" source="MWrZeghzE-EOdqpb_YKr-37" target="MWrZeghzE-EOdqpb_YKr-42">
          <mxGeometry relative="1" as="geometry" />
        </mxCell>
        <mxCell id="MWrZeghzE-EOdqpb_YKr-37" value="Count 120 second on Timer1" style="rounded=0;whiteSpace=wrap;html=1;" vertex="1" parent="1">
          <mxGeometry x="-650" y="680" width="120" height="40" as="geometry" />
        </mxCell>
        <mxCell id="MWrZeghzE-EOdqpb_YKr-41" value="Light the led as red" style="shape=document;whiteSpace=wrap;html=1;boundedLbl=1;fillColor=#e51400;strokeColor=#B20000;fontColor=#ffffff;" vertex="1" parent="1">
          <mxGeometry x="-1020" y="660" width="120" height="80" as="geometry" />
        </mxCell>
        <mxCell id="MWrZeghzE-EOdqpb_YKr-44" style="edgeStyle=orthogonalEdgeStyle;rounded=0;orthogonalLoop=1;jettySize=auto;html=1;" edge="1" parent="1" source="MWrZeghzE-EOdqpb_YKr-42">
          <mxGeometry relative="1" as="geometry">
            <mxPoint x="-900" y="700" as="targetPoint" />
          </mxGeometry>
        </mxCell>
        <mxCell id="MWrZeghzE-EOdqpb_YKr-42" value="Send message &lt;br&gt;on bus&lt;br&gt;&amp;nbsp;( &quot;There is an problem about closing to door . Probably closing the door is forgetten. Therefore door is open. Try to close the door.&quot;)" style="shape=step;perimeter=stepPerimeter;whiteSpace=wrap;html=1;fixedSize=1;rotation=0;" vertex="1" parent="1">
          <mxGeometry x="-840" y="650" width="160" height="100" as="geometry" />
        </mxCell>
      </root>
    </mxGraphModel>
  </diagram>
</mxfile>
